<svg width="60" height="60" viewBox="0 0 60 60" fill="none" xmlns="http://www.w3.org/2000/svg">
<path d="M12.8 42L8.8 51.3L18.1 47.3C16 45.8 14.2 44 12.8 42ZM47.2 18L51.2 8.7L42 12.7C44 14.2 45.8 16 47.2 18ZM9.4 26.3L0 30L9.4 33.7C9.1 32.5 9 31.3 9 30C9 28.7 9.1 27.5 9.4 26.3V26.3ZM50.6 33.7L60 30L50.6 26.3C50.8 27.5 51 28.8 51 30C51 31.3 50.9 32.5 50.6 33.7ZM18 12.8L8.7 8.8L12.7 18.1C14.2 16 16 14.2 18 12.8ZM42 47.2L51.3 51.2L47.3 41.9C45.8 44 44 45.8 42 47.2ZM33.7 9.4L30 0L26.3 9.4C27.5 9.2 28.8 9 30 9C31.2 9 32.5 9.1 33.7 9.4V9.4ZM26.3 50.6L30 60L33.7 50.6C32.5 50.9 31.3 51 30 51C28.7 51 27.5 50.9 26.3 50.6" fill="#FFCE31"/>
<path d="M30 49C40.4934 49 49 40.4934 49 30C49 19.5066 40.4934 11 30 11C19.5066 11 11 19.5066 11 30C11 40.4934 19.5066 49 30 49Z" fill="#FFCE31"/>
<path d="M18.4998 57.7001L25.4998 50.5C22.9998 50 20.6998 49 18.5998 47.6L18.4998 57.7001ZM41.4998 2.30005L34.4998 9.50005C36.9998 10 39.2998 11 41.3998 12.4L41.4998 2.30005ZM2.2998 41.5L12.3998 41.4001C10.9998 39.3001 9.9998 37 9.4998 34.5L2.2998 41.5ZM57.6998 18.5L47.5998 18.6C48.8998 20.7 49.8998 23 50.4998 25.5L57.6998 18.5ZM2.2998 18.5L9.4998 25.5C9.9998 23 10.9998 20.7 12.3998 18.6L2.2998 18.5ZM57.6998 41.5L50.4998 34.5C49.9998 37 48.9998 39.3001 47.5998 41.4001L57.6998 41.5ZM18.4998 2.30005L18.5998 12.4C20.6998 11.1 22.9998 10.1 25.4998 9.50005L18.4998 2.30005V2.30005ZM41.4998 57.7001L41.3998 47.6C39.2998 49 36.9998 50 34.4998 50.5L41.4998 57.7001" fill="#FFE62E"/>
</svg>
